PathFileType	3	(X/Y/Z)	results
DataRate	CameraRate	NumFrames	NumMarkers	Units	OrigDataRate	OrigDataStartFrame	OrigNumFrames
30.0	30.0	4	85	mm	30.0	164	262
Frame#	Time	head			nose			neck			shoulder_r			elbow_r			wrist_r			shoulder_l			elbow_l			wrist_l			hip_r			knee_r			ankle_r			hip_l			knee_l			ankle_l			heel_r			heel_l			mtoe_r			ltoe_r			mtoe_l			ltoe_l			asis_l			asis_r			psi_r			psi_l			mhnd_r			lhnd_r			mhnd_l			lhnd_l			l_lat_knee			r_med_wrist			l_lat_ankle			r_med_ankle			r_lat_knee			xiphoid			l_med_ankle			r_med_knee			l_med_elbow			navel			r_lat_elbow			r_lat_wrist			l_med_wrist			l_lat_elbow			l_med_knee			r_med_elbow			r_lat_ankle			l_lat_wrist			chin			T10			r_eye			l_eye			l_ear			r_ear			spinal_cord_8			spinal_cord_12			spinal_cord_27			spinal_cord_33			up_arm_r_0			up_arm_r_5			up_arm_l_0			up_arm_l_5			front_torso_11			front_torso_7			front_torso_4			front_torso_1			front_torso_10			thigh_r_2			thigh_r_3			thigh_l_1			thigh_l_5			shank_l_0			shank_l_4			shank_r_1			shank_r_2			foot_r_1			foot_r_3			foot_r_5			foot_r_6			foot_r_7			foot_l_1			foot_l_7			foot_l_0			foot_l_4			foot_l_5			foot_l_6			
		X1	Y1	Z1	X2	Y2	Z2	X3	Y3	Z3	X4	Y4	Z4	X5	Y5	Z5	X6	Y6	Z6	X7	Y7	Z7	X8	Y8	Z8	X9	Y9	Z9	X10	Y10	Z10	X11	Y11	Z11	X12	Y12	Z12	X13	Y13	Z13	X14	Y14	Z14	X15	Y15	Z15	X16	Y16	Z16	X17	Y17	Z17	X18	Y18	Z18	X19	Y19	Z19	X20	Y20	Z20	X21	Y21	Z21	X22	Y22	Z22	X23	Y23	Z23	X24	Y24	Z24	X25	Y25	Z25	X26	Y26	Z26	X27	Y27	Z27	X28	Y28	Z28	X29	Y29	Z29	X30	Y30	Z30	X31	Y31	Z31	X32	Y32	Z32	X33	Y33	Z33	X34	Y34	Z34	X35	Y35	Z35	X36	Y36	Z36	X37	Y37	Z37	X38	Y38	Z38	X39	Y39	Z39	X40	Y40	Z40	X41	Y41	Z41	X42	Y42	Z42	X43	Y43	Z43	X44	Y44	Z44	X45	Y45	Z45	X46	Y46	Z46	X47	Y47	Z47	X48	Y48	Z48	X49	Y49	Z49	X50	Y50	Z50	X51	Y51	Z51	X52	Y52	Z52	X53	Y53	Z53	X54	Y54	Z54	X55	Y55	Z55	X56	Y56	Z56	X57	Y57	Z57	X58	Y58	Z58	X59	Y59	Z59	X60	Y60	Z60	X61	Y61	Z61	X62	Y62	Z62	X63	Y63	Z63	X64	Y64	Z64	X65	Y65	Z65	X66	Y66	Z66	X67	Y67	Z67	X68	Y68	Z68	X69	Y69	Z69	X70	Y70	Z70	X71	Y71	Z71	X72	Y72	Z72	X73	Y73	Z73	X74	Y74	Z74	X75	Y75	Z75	X76	Y76	Z76	X77	Y77	Z77	X78	Y78	Z78	X79	Y79	Z79	X80	Y80	Z80	X81	Y81	Z81	X82	Y82	Z82	X83	Y83	Z83	X84	Y84	Z84	X85	Y85	Z85	
164	5.466666666666667	99.16855727005283	1624.4178126704721	-278.7068625514889	101.23537690168796	1445.4655408141464	-378.2233019161459	77.98305757307797	1324.4396956987905	-205.82274118082506	222.92495837632862	1284.339711799989	-202.45042124299258	281.95203516278093	1087.015445335569	-358.6421475027914	147.404536319295	1252.8515775146811	-441.64677223670117	-59.46218959537695	1281.0478671379485	-220.0430316493709	-120.27849684768657	1086.6363325765612	-366.4216596048171	32.696934570953104	1242.7027107340177	-446.56157692016654	173.47946125112557	845.48487937164	-23.072232694228283	217.5567439587292	479.5302299452913	-149.91380230284602	260.1230362690807	111.42697713397703	-74.9172513563961	-26.27689827556169	835.2319312156873	-21.702546779605537	-64.7678347257535	478.6948688982471	-139.47686380543172	-93.53277726468109	112.25308256482103	-63.10774487271541	259.02098169928377	57.66126240558833	-53.008196829014516	-100.91329156651423	51.98235637970833	-32.098493525238844	283.8227534398723	35.407479638811225	-279.9177800750535	342.94962653021076	33.25098378000633	-210.96887594137098	-98.95456908668291	45.66487446277047	-262.71499894056694	-178.00093126435556	34.351649529048004	-202.8627124216088	-73.23334597898214	874.4190216320443	-86.51299396737278	219.35551376376188	887.9946480958588	-84.17774146816369	117.98916325115222	957.3210887344333	35.385786975840176	18.455109431625026	949.4824765114196	30.80500837073334	100.44849732504215	1282.9195508501468	-489.31998437864473	106.00844558635163	1327.1303926531584	-459.59574011328	84.97609548954385	1271.6401114617656	-493.93385756528664	84.6388505297691	1312.8578556759678	-459.9231070378846	-112.08628668510929	480.06926951549764	-138.227786577435	151.41341470106784	1233.4053175751526	-462.54416893862293	-144.95914206085027	103.62675544307382	-52.51148277627578	230.0647698313507	95.39602503936767	-90.11256042017747	260.3010219941211	474.9110480917066	-145.352102601599	86.80027374920913	1129.355845425987	-233.0610744234825	-66.6086246531723	96.11766090347757	-75.99840947129229	176.88593596482121	473.47854360113683	-157.71756520364846	-102.55658272268622	1072.3328602236134	-340.5166922831743	83.90103999128986	916.5897065267594	-166.91165849042534	309.69635729064623	1112.762741745887	-370.01244046616426	148.4342966052795	1259.2126220752018	-410.5188091439167	22.770055708891235	1224.7625818891916	-471.62774982798675	-144.24996329343656	1114.7909683040655	-375.9069249567523	-21.433641666523762	481.40422701109804	-157.0216275012941	254.15548593421937	1072.0854390434104	-340.42945505290834	307.64513889285433	99.99951760458487	-68.51435099015242	22.065523951606547	1255.4781275434495	-420.1919991501165	100.34065959181267	1374.9188581521785	-352.0004499672014	68.68043607612884	1211.5553000909065	-52.97999979414272	133.12395653950986	1475.651253172047	-379.55397234329314	66.7099533212705	1475.441959819084	-382.4010663243485	12.082687107239032	1480.76118941188	-286.6098376435797	176.6887598143686	1478.5584407732392	-276.7757908298057	73.78883886286255	1398.333722328594	-181.49958966666574	67.30949138891056	1306.222603483743	-89.94151455084095	79.93357030654441	1062.5755088864003	-11.396158944045668	69.71274153183822	1197.6714841733349	-61.71884740135844	235.74624803654604	1210.2433967820987	-315.2860294546047	286.66319746687213	1155.1748632993538	-270.5779905508603	-93.40207195172245	1256.2747273931182	-259.73266320049703	-95.1435116671	1115.723265869543	-295.707667131059	124.69849060571134	958.6155331066842	-136.01776962055965	89.927539870508	1035.8926564402832	-229.92195026720685	28.470640840059353	1168.4164570526434	-260.32718532938526	17.50800777817211	985.866635734329	-161.8229523375105	161.98089323380285	1208.2077411935056	-271.26443858202475	179.73267590649792	646.2818001093246	-94.08174652530974	278.0640313798248	618.9620082584224	-91.09746853469946	-8.039144722065805	577.7664656440827	-105.86836776245195	-132.6306584827469	752.6307244190975	-66.3822284900646	-152.2170378445443	205.16647968478864	-85.54534454277513	-29.885363527946033	331.7791418987739	-118.11583644197981	291.44145773102827	329.99386784816534	-108.7878760693398	202.22330762954377	281.0326051563246	-120.791312536956	304.8664974889378	28.685676124177906	-258.3414867956636	327.25723499843787	31.043556419608503	-238.55041622172678	261.60510990111675	51.83810238261502	-198.82929450224586	297.4177552341429	58.69437943247146	-181.1538726761765	326.8995071252879	45.098815722916925	-164.32004042275216	-148.31918927230507	34.03698935433317	-234.4304394593732	-162.77673972970626	67.4398274428228	-127.44943771443981	-163.18765419560202	34.36973900854233	-225.89330914421507	-130.03115991226016	33.61155849995306	-244.25989479436188	-134.78828819489533	51.08693700656577	-184.91359354190027	-102.48479072468635	63.62751282299761	-155.98481284564986	
165	5.5	97.95482615936535	1601.6845872580814	-293.7558639617346	100.45047546525967	1422.6297633395625	-393.0778193180386	77.8805890279994	1301.237164805335	-216.27350062998312	214.89119452111768	1264.1920715570463	-211.41350310623602	273.3037945106416	1063.3793789408314	-363.33173087492895	140.67700127558106	1227.4454063831163	-452.70114546333747	-53.608494211106546	1258.8024676282844	-235.58195116834273	-124.23084124859912	1063.93967701286	-376.8694157677365	30.531380244617573	1218.2342828051378	-457.00949798697485	171.97550111258232	829.5997020245865	-5.667214517578456	224.49068036825022	477.5538364970963	-166.44494050423484	261.6529143787488	112.31524063103481	-76.1337392149116	-27.980494426086757	824.3842045980357	-5.642894117498826	-70.8733502886363	477.7830655600259	-151.42952613539128	-93.28570086160771	113.22819458108147	-64.61547425219221	259.75169999503186	58.74931419596198	-52.58163964610835	-99.56592940573331	52.920121227445094	-32.45617176805819	287.459149721143	35.37333669209897	-279.041743424253	345.62293933709566	33.024963470060285	-209.28468143202915	-98.21839608048546	46.907298857429275	-263.0852026002276	-176.77505767105478	33.648515245266935	-202.98804617546108	-73.3592918866182	859.4350794636566	-73.85675644102379	219.4473200519178	865.9822329972417	-69.45054839301154	118.81704736503853	947.0535958441072	43.14479816693867	19.160852974141974	941.316199519819	38.12678592082072	94.51625483996463	1256.3916853579735	-501.823301324815	99.87712382702993	1301.379426206987	-473.2504731177238	82.93583883166356	1246.6948094813388	-504.53199731373587	83.42011056077715	1287.6986601627452	-470.2654387777994	-117.88856631243375	480.0504484005561	-148.58589628178683	144.87941480831694	1207.414405958471	-472.9996198621878	-144.40505007333203	104.20783500180164	-52.91887066795563	231.73834956648383	95.98852320288943	-91.29768770992293	266.89944192832064	473.1942562319457	-159.87460115408336	87.56318514465883	1105.1007577900311	-233.99738033407476	-66.3574347551977	97.10672942784853	-77.51500547024943	183.87385745869022	472.0655751103446	-174.65674288509362	-106.19902392835935	1049.5376767296884	-351.234306142189	85.65616834871263	895.7932092304935	-157.5755637520952	301.34697951699906	1088.6652412849933	-375.0004576717886	141.3120744066312	1234.6561331193016	-421.7483510417096	20.184175941833942	1200.6001926745323	-482.1228091891618	-147.63323007714672	1092.6351195762975	-386.152989891463	-27.36010104398064	482.04379326820566	-167.91246269771133	245.25383735967046	1049.0416915036037	-345.0318394557202	308.9135074335316	100.68750841036805	-68.31284478427978	20.254741646207552	1230.999185186334	-430.49458209989774	100.27167546423617	1352.1106397504543	-366.7663359544396	69.1637683066307	1195.8803295562504	-58.114455881104725	132.11345734587346	1453.0373332702936	-394.71020866893934	65.68110945472219	1452.3575155053095	-397.00162150653927	11.81982034302527	1457.4095409803142	-300.7632170960496	176.51372765639854	1456.3764443038351	-292.3033497521509	73.36564269079334	1376.2073132268092	-195.57020507178234	67.34758645409107	1288.6306367928369	-99.6356960494046	81.10913661078621	1049.1514451992434	-9.341823097765724	70.25423288666202	1181.592640424575	-66.16841656919732	227.85922057995796	1187.8127356847676	-322.69940158449305	277.98838813886186	1133.1937067612466	-276.57222845246366	-89.37829713230252	1234.4078806589594	-273.87446016708105	-96.24470690744059	1093.4072135071892	-307.3947694743485	126.27935843111338	939.4542303626442	-128.79178173699648	91.11321173513217	1011.9158286090197	-226.31832609699083	29.0443865130956	1142.5273505079488	-263.08893622480235	18.954170033664315	964.9377281605589	-155.81445617374226	162.368430509156	1182.3368440782722	-276.04504716687177	182.74458273666673	638.0893563864495	-94.94842715593822	281.30855042372974	611.6406095574301	-91.79557510078945	-12.7172469428324	574.0441807100301	-109.57495247494381	-135.4037411753284	746.4129809726302	-55.75367116612275	-153.6161912876568	204.69388426282777	-88.58310281921655	-33.60801946475338	331.99156292030455	-126.6617243897695	295.9513840736582	329.0516547285017	-117.94869154705981	206.48035769092039	280.5257791178178	-129.83737831971987	308.15249677291524	28.57140670383249	-257.15390721324786	330.2900881908225	30.830745106198197	-237.06874760803547	264.2730805673345	52.31146594286698	-198.32967793627958	299.8959216790241	58.953038474196184	-180.19470225652194	329.0354027838922	45.19080446965094	-162.90648338842573	-147.19857274299775	34.07580782416216	-234.6530926682651	-162.09418170358262	67.00602683254766	-127.58569986496252	-162.04249182057256	34.04492553960564	-226.06695976522948	-128.93813523641404	34.09689875566012	-244.54284386377145	-133.91410957407763	51.388097394800575	-185.16055083960936	-101.8230526245304	64.66218928000146	-156.32274766961422	
166	5.533333333333333	95.69850259456645	1575.614963143321	-306.8757503309332	100.20483103743791	1396.3045430486425	-405.6642886295863	78.14257442209002	1274.273766195549	-226.05031620494827	210.37132362228388	1239.6422333341093	-220.34252508718777	269.1607857200051	1036.154629720312	-368.5096996011999	136.32204913165924	1195.2049819751007	-466.2403264160454	-47.74816759292942	1232.7730116951707	-249.67305134250253	-123.98304464207962	1038.363421380901	-388.6490400440708	29.85758980549838	1192.5272604714767	-470.7902189121507	171.71889134965477	812.5608682067528	6.819897651224746	230.79578814095788	474.4493157693559	-180.7010393938781	262.3637873337555	112.1059756854358	-77.51605042272857	-28.19662799579148	808.3366058400388	11.873894984640767	-75.52109869833458	475.79001403486154	-165.28340884696547	-93.79080221722303	114.0228246671619	-66.64282061176483	259.6714157909095	58.763278381282454	-52.57083609826281	-99.29288338368566	53.80306311862054	-33.153185312808276	289.4678960270431	34.46884496768783	-278.66875286983407	346.90768623800824	31.88133478127888	-208.32272051106264	-99.49123141331529	48.001760013839686	-263.7914849983712	-177.39101745792206	33.414513726477146	-203.14951757127855	-75.05063150855554	837.8561531589598	-57.94178220762059	217.79709152355497	843.3222353926407	-60.827080043563726	120.0589421456253	933.9005297985569	46.96696645498727	20.296381784811494	928.2526207364972	44.73360185376249	90.69748684608645	1221.746548954429	-517.1876748553365	95.08636744268487	1267.8401680181432	-490.2589121012765	81.45342042550645	1221.0757586681264	-519.1376109214153	82.77664773898537	1261.855267952438	-484.62633717333296	-122.20097581310955	479.2793970526683	-161.23426441759887	141.08513915839336	1174.4702698728256	-485.69062224582757	-144.58438442619342	105.09720534793665	-53.53898100936802	232.49219706821552	95.6052481339491	-92.57600756491073	273.05062256469273	470.3635958329248	-173.31400102633376	88.26704006778648	1077.5793671153947	-235.33402785937594	-67.05489049820454	97.65060007605969	-79.62636197464147	190.1131991623722	469.0268870608604	-188.56622449691613	-105.39220509228316	1023.833197796896	-363.49002215836276	86.25580908797848	871.7177128586867	-150.06671346874614	297.18910044372495	1061.2540198895285	-380.6088083175466	136.35151345105902	1203.587168679733	-435.5774586709072	18.950656644410092	1175.0987589325637	-495.8100173582496	-147.36517462973805	1067.2600208103668	-397.3408473335832	-31.504969571133064	481.52498083314396	-179.72978880303552	241.10689816628624	1022.1225923340595	-349.98035198484024	309.36399797250937	100.22804574233457	-68.58133261185397	20.151028055900355	1205.1634084078428	-444.0002352892723	100.40729127952959	1325.860905093263	-379.15154076236104	68.65030107959846	1175.7402039732206	-63.596128830048556	131.640877384494	1426.9523554994419	-407.18613215100874	65.23148274329701	1425.7501487235536	-409.8910487069547	10.729652529403777	1430.656071772375	-314.00635580956936	175.37027486114292	1430.9259995982306	-304.51360238646816	73.3745927396729	1350.0495559852782	-208.59092405760143	66.9266108302838	1266.6318129802498	-109.04583397930205	80.55135560893761	1031.2483359153625	-8.53895851198243	69.8138059668656	1161.1242365147987	-71.02668790192871	223.53937553326048	1161.2589540902118	-330.2023803215231	273.67837539121024	1107.5457310827392	-283.03397745219434	-84.77113385096311	1208.6535169102485	-286.9348395526815	-93.84390434032565	1067.6732289247132	-320.013383832352	126.62972580938323	916.6461414673822	-122.92969820928701	91.92974993095892	984.8138098633696	-223.66622886304663	29.86123940173288	1113.616365581218	-266.3439528839405	19.426394976874775	940.7432991954656	-151.65429578910064	163.19294373926118	1153.098933069792	-280.1910023708323	185.96200262195617	628.5265359319351	-96.58135408727091	284.93127909026094	603.493251396659	-94.9232250694304	-15.923134994330997	567.8307463085612	-113.47066987146269	-136.39665246902504	736.7502969632707	-45.55876747845556	-155.1915750896135	204.36327610705285	-92.11310933101169	-36.830033496700864	331.0514853751364	-136.80410194436303	299.7955690247608	326.9005306798911	-126.11347136203366	209.9557417596231	278.99277507957595	-137.7246052107683	309.88618421006083	27.572960538448964	-256.5531809038193	331.8379572890334	29.721121240668335	-236.25302660745513	265.6060381440579	51.83826589099478	-198.24583016854794	301.0960126909205	58.25683967801354	-179.77319487558992	329.9512286081904	44.320483294644994	-162.15089534881142	-148.05185444263162	34.349976339617015	-235.02371767576176	-162.71883870552134	66.94527599186844	-127.82235991777586	-162.8317277222896	34.07000706703723	-226.33225470515984	-129.8651346958746	34.67693664105686	-245.04307510438255	-134.69897133514718	51.83608797522419	-185.61075944504847	-102.62384952971188	65.60812866047807	-156.98954703681142	
167	5.566666666666666	94.16261598511993	1546.6658046389182	-317.8863300772591	100.2462410617642	1367.1651543660114	-416.2439180269442	77.94218864374862	1244.4694430388595	-235.087776854966	213.84942665053336	1209.4833689307482	-232.64035274729213	274.21685542744024	1005.2212439473491	-379.0974287860495	137.51273457831883	1158.6871161390154	-480.36257246196067	-43.70579053142509	1202.6589013711807	-260.0984497295719	-122.55417640261894	1008.7654639035027	-398.3353394258989	28.979115350955016	1162.893002779161	-484.72380281467974	172.69546673783293	793.080253732376	17.09657007479526	236.2978077695555	469.9475928111358	-194.82914085474792	262.49061283427756	110.94859488771696	-79.20028166290763	-27.135237531217964	789.2834741789213	25.026024854669675	-79.50719119269642	472.1243388424282	-179.71729580335176	-94.4570094547179	113.67763730361058	-69.12022483429845	259.1580879378939	57.74930703633101	-52.95509447999756	-99.31611233912767	53.53450052568888	-34.328619069701666	288.9897357407426	34.020834929522444	-279.10847185614324	346.30200138401426	30.518398675222112	-208.69805981228862	-101.14461178992305	48.656340009515965	-264.98112801170015	-178.33083291051437	32.51206607143424	-203.8234439351461	-74.91157915657053	814.6936034309374	-45.77423371262369	217.87167465113328	819.7992694065867	-52.8375437297406	121.55177184384081	916.5945553400386	50.74758390011819	21.769275849578282	910.8876008832732	50.164996615927606	91.18321255108675	1182.900236992715	-531.8308922491382	94.54596490661977	1229.7305030777113	-506.0498850975499	79.21483664951917	1191.4308221710153	-534.4890715341498	81.5109940321929	1232.2074864993485	-500.0254874019696	-125.82955670330429	476.8068227280404	-174.2217419491985	142.72151072916333	1137.5979912169284	-499.31110225886204	-144.84084166192727	105.15416210549667	-54.28158915444528	232.5809099596326	94.29560092782874	-94.0149936063591	278.3179013555942	465.6284462540423	-186.45816337174102	89.38913106278515	1047.6320738192605	-236.26943846424652	-68.08422128622432	96.9104668793715	-82.34025130985648	195.55921402545806	464.9029633186381	-202.6910515207082	-103.35506931135107	994.1564092003944	-373.68391550920717	88.13382297583385	845.4101537161674	-142.6836495955404	301.6699194352853	1030.6343806710445	-391.8432517603566	137.40517205533843	1167.8175956843425	-449.9143187512914	17.37405161487701	1145.469291849694	-509.4309063333785	-146.2074777373786	1037.6403021327837	-406.3384655966329	-35.03383956310423	479.0129422585101	-192.22628034000746	246.63171534665807	990.9505536634802	-360.053719884701	309.251956420031	98.83663802558068	-69.3711693324239	20.02672754514048	1175.529887235687	-457.6728009480335	101.0627404905241	1296.7898036178058	-389.5621592063734	68.00690850513448	1152.5817572552626	-68.81007978476006	131.41306150874067	1398.083110938189	-417.8372448246191	65.01696292380703	1396.293398534942	-420.54364345200224	10.465963856390994	1400.9523148117116	-324.67459260907526	175.09709694303038	1402.6855712443312	-315.17166721142326	72.57286962255311	1320.8606799698875	-220.7670340274409	66.00122380243162	1241.5307148106638	-117.94246801082863	80.4696837062232	1010.5380969277262	-7.8256159252256055	69.3132852701969	1137.6830169489908	-75.63022446966406	226.97915186953725	1130.005197672679	-341.7153473950689	278.5866985946749	1077.707228731563	-294.54044487798774	-81.50193590907689	1178.629804144201	-296.63534616169056	-90.93935563101694	1037.8000480779103	-330.24876270628346	128.03825853875648	891.6765048508618	-117.14749442387424	93.56938368130668	955.4460467896569	-220.80129385082282	30.95995988357325	1081.9836276680019	-269.095052904574	20.87507600485472	913.8657448546307	-147.51226999589878	164.12444637226392	1121.7581595605059	-283.6951709680618	189.3190042008914	617.2066603638228	-99.33133763417315	288.43645931729367	592.7279525208676	-98.40647834171226	-18.30608568680477	559.4470799021683	-119.2038090285007	-136.2619125811395	724.359621232508	-38.27182458233476	-156.68356660986012	203.13617453719957	-95.67607887397025	-39.822995022970915	328.3823101226624	-147.76882353063564	302.972822583402	323.53601991405776	-134.58372568979075	212.69311749388052	276.30477985765066	-145.53593325838716	309.3003887659081	26.81157002621776	-256.99372313463454	331.24710298094243	28.635906756325895	-236.65644871478548	265.21290524292175	51.335373494669916	-198.64854004900246	300.74677109056336	57.28697599412428	-180.1040680135604	329.421899326805	42.961974874175205	-162.49945728123873	-149.2512471708653	34.07089370532801	-235.91041884175286	-163.66215016892482	65.98330118693787	-128.46913620117846	-163.9587651292586	33.50642946556653	-227.11071082663958	-131.14820395416916	34.74521822627999	-246.06306944162753	-135.82525929368862	51.5816127639985	-186.52599218622214	-103.77337329701591	65.77851269093951	-158.08691731188873	
